PathFileType	4	(X/Y/Z)	C:/Users/beibeiliu/ov580/test_trc/User3\sequence.22_training_dense_right.trc
DataRate	CameraRate	NumFrames	NumMarkers	Units	OrigDataRate	OrigDataStartFrame	OrigNumFrames
120	120	24	19	mm	120	1	96
Frame#	Time	ThumbCMC			ThumbMCP			ThumbIP			ThumbTip			IndexMCP			IndexPIP			IndexTip			MiddleMCP			MiddlePIP			MiddleTip			RingMCP			RingPIP			RingTip			PinkyMCP			PinkyPIP			PinkyTip			BackHand1			BackHand2			BackHand3	
		X0	Y0	Z0	X1	Y1	Z1	X2	Y2	Z2	X3	Y3	Z3	X4	Y4	Z4	X5	Y5	Z5	X6	Y6	Z6	X7	Y7	Z7	X8	Y8	Z8	X9	Y9	Z9	X10	Y10	Z10	X11	Y11	Z11	X12	Y12	Z12	X13	Y13	Z13	X14	Y14	Z14	X15	Y15	Z15	X16	Y16	Z16	X17	Y17	Z17	X18	Y18	Z18	
0	0	69.493	-24.5888	20.6364	41.9016	-37.4123	7.91845	20.5718	-48.973	-9.66992	5.03941	-57.9128	-20.6299	51.8867	-26.8075	-55.0887	34.0418	-34.6267	-76.291	18.9442	-37.031	-90.7131	78.5544	-25.8474	-70.6237	64.5703	-31.1487	-92.7957	55.0417	-35.9964	-121.864	100.37	-30.3398	-67.7238	96.4602	-32.0816	-91.851	95.4538	-33.8432	-118.698	124.323	-38.0431	-56.0508	130.884	-40.2497	-75.8266	138.869	-39.3305	-93.8635	113.329	-12.9733	-23.5808	123.546	-1.78548	3.73886	87.7681	-3.57046	-0.622967	
1	0.00833333	67.7279	-23.4229	15.4263	47.4027	-35.5305	6.29945	23.2856	-47.1943	-13.2962	5.63036	-55.891	-18.6011	54.5589	-26.4888	-56.236	34.9915	-31.759	-76.0392	23.0285	-36.5999	-96.7643	78.2994	-24.9327	-69.3631	65.3649	-30.5629	-97.5705	56.631	-35.027	-124.915	100.421	-29.3587	-69.9859	104.258	-32.1194	-90.5162	97.2921	-33.2492	-118.839	126.132	-38.3585	-55.2826	133.896	-39.7777	-77.4522	137.544	-40.3513	-98.7803	115.726	-13.5674	-24.0208	126.219	-2.9603	2.73337	88.9088	-2.37079	-4.92513	
2	0.0166667	69.8156	-21.4945	19.9925	48.4924	-35.3554	3.07511	23.7293	-45.6383	-12.6927	8.73613	-54.1731	-22.4645	56.9012	-25.5817	-57.5146	38.3952	-30.2006	-73.2364	27.2324	-34.9571	-95.0773	79.011	-24.9779	-74.5979	67.7019	-29.6451	-97.5633	58.9936	-34.7546	-126.859	105.85	-29.6946	-69.3679	102.592	-31.6288	-89.8375	100.647	-33.9387	-117.931	128.153	-36.9833	-56.3233	135.663	-40.7805	-74.8528	139.964	-40.3004	-94.8096	118.576	-13.8629	-25.4894	130.607	-3.46291	-0.938757	93.6128	-1.42111	-4.71345	
3	0.025	69.3355	-21.3766	17.6367	48.2834	-33.5731	6.30202	25.1085	-44.4533	-14.4533	7.46564	-53.0809	-22.2613	57.8451	-24.1252	-54.7987	38.3751	-30.2077	-76.9856	29.3945	-34.2324	-97.1658	85.4409	-24.9951	-73.548	73.0605	-30.3141	-99.4293	63.7479	-35.6666	-125.367	105.742	-28.6464	-70.0479	104.874	-31.1556	-93.4562	100.781	-34.1783	-117.699	129.54	-37.8255	-54.2585	135.602	-41.1562	-72.1057	142.964	-40.6344	-97.624	117.853	-12.1524	-24.6504	131.579	-5.22797	3.29636	90.8722	-2.60986	-6.36449	
4	0.0333333	69.1173	-19.6414	17.1817	50.0118	-32.1625	5.18251	26.3073	-41.7269	-13.1039	9.07149	-50.9657	-24.1422	59.5537	-22.9591	-58.5059	42.1851	-26.9629	-74.2497	32.7135	-32.5312	-96.5324	84.4067	-22.6401	-68.1003	73.4351	-29.2391	-97.8583	63.9926	-32.8644	-122.312	108.078	-29.3134	-63.9453	104.121	-30.5414	-92.4667	103.238	-32.6577	-118.251	132.527	-39.1789	-50.5385	137.774	-40.3459	-75.3527	144.362	-42.0688	-96.5012	121.063	-12.4203	-20.1568	136.045	-4.2382	3.64619	98.8342	-2.14503	-2.92527	
5	0.0416667	70.7778	-20.0655	16.3673	53.0938	-32.1615	3.55115	31.3955	-41.1456	-11.0377	13.6034	-49.1167	-23.4436	60.7558	-21.7573	-55.8104	48.3653	-26.9992	-78.7673	30.3743	-29.0881	-97.4678	90.0498	-22.4994	-68.5225	81.0439	-27.4509	-95.0361	68.7582	-31.4884	-120.567	109.653	-28.4091	-66.2114	111.641	-30.4045	-88.7523	106.177	-33.2762	-113.04	136.341	-39.4233	-52.6072	138.593	-41.4138	-70.1886	149.573	-41.8575	-95.2643	126.651	-14.8509	-21.8699	134.447	-6.24139	3.88018	99.6341	-2.75908	-5.40286	
6	0.05	74.3591	-20.2042	16.5683	51.3814	-29.4283	4.44836	28.2876	-38.5251	-14.9138	13.0679	-46.9018	-24.3886	65.7749	-19.8417	-57.2957	48.3168	-23.2748	-78.2737	41.1741	-27.3008	-100.518	91.5723	-20.0375	-68.7271	84.1072	-25.4353	-94.5975	75.3833	-29.6921	-123.3	117.849	-27.7434	-65.6563	117.513	-29.8871	-88.1248	115.545	-32.533	-112.735	136.672	-39.0921	-48.3553	146.448	-42.9372	-70.5397	153.823	-43.3318	-93.7624	126.614	-12.027	-17.0653	134.549	-5.73754	8.71538	99.8086	-2.07908	-3.13658	
7	0.0583333	75.1507	-18.7346	20.8425	53.0811	-28.4354	3.07266	31.8071	-37.0832	-16.0694	14.8665	-44.2043	-28.8085	67.0406	-17.2634	-57.2831	54.1351	-22.8861	-81.7725	42.2769	-24.3932	-103.104	96.5942	-20.3192	-70.5005	88.2381	-24.5164	-96.2009	82.4666	-29.0101	-128.252	121.296	-28.3404	-65.5502	121.961	-29.8829	-88.5767	117.101	-30.7794	-111.584	139.638	-38.5148	-45.6937	146.294	-41.4553	-65.826	158.214	-41.7251	-88.7859	127.484	-11.2205	-20.1423	137.281	-4.70646	11.6707	100.233	0.385363	0.605115	
8	0.0666667	77.4911	-20.2497	15.9573	53.916	-28.5665	3.74995	35.1365	-36.76	-14.9611	17.204	-44.2397	-27.3228	69.6529	-18.7712	-58.6945	55.104	-21.5176	-79.4999	46.9486	-24.2301	-98.9996	99.1949	-20.1107	-68.8857	90.6137	-25.1533	-98.0407	83.3239	-28.122	-121.35	119.856	-26.9721	-60.5733	120.189	-29.4763	-84.7783	120.078	-31.1449	-114.037	142.446	-38.2989	-46.4307	147.244	-41.2096	-67.8191	160.235	-43.5657	-85.2101	132.947	-12.5421	-18.3423	140.566	-7.14193	9.18906	104.614	-1.78017	1.66906	
9	0.075	77.1102	-17.77	21.2024	54.3628	-28.5973	3.43182	34.7247	-35.6307	-14.6279	17.3467	-42.712	-29.2339	72.3822	-18.1715	-59.1357	55.5801	-21.5248	-75.245	45.1223	-25.2996	-100.662	96.4118	-18.4654	-70.5344	90.8943	-24.3123	-97.3654	82.9687	-26.5896	-121.672	121.589	-26.8066	-60.5917	119.874	-28.6969	-84.4812	119.172	-30.7687	-111.949	145.359	-38.7321	-46.2461	149.387	-40.9241	-66.7009	157.162	-40.2184	-86.8076	128.935	-13.2552	-14.5241	140.933	-7.94589	8.52239	107.821	-0.0414326	1.89596	
10	0.0833333	79.9819	-17.446	17.2965	53.2952	-26.2395	1.40455	32.4638	-34.9937	-15.7796	18.3537	-42.6976	-30.9969	72.5697	-16.0265	-55.0951	54.5155	-20.7076	-79.15	49.356	-24.0727	-99.6788	99.544	-19.0292	-70.2156	94.8039	-22.9348	-94.3363	85.3562	-26.9062	-122.68	123.311	-26.3595	-64.5403	121.953	-27.7008	-85.6599	120.337	-30.1323	-112.05	146.122	-39.3239	-46.6561	149.386	-40.6711	-66.8827	158.966	-39.9338	-90.0993	130.608	-12.2034	-13.3714	141.861	-5.01099	11.8567	107.514	-1.24034	2.57166	
11	0.0916667	79.9105	-16.9312	21.2405	59.8629	-27.0807	1.26295	34.2371	-34.8003	-20.1591	16.8027	-41.4043	-32.3151	70.6105	-15.5579	-57.294	57.7072	-19.8533	-80.1094	46.7225	-23.4777	-101.865	98.3702	-17.2875	-67.1319	93.41	-21.75	-96.1785	82.8397	-24.5769	-123.232	123.265	-24.9455	-64.1469	123.407	-27.5254	-86.1133	119.52	-29.6336	-114.62	142.213	-36.2978	-50.7661	151.442	-39.3468	-70.1305	160.521	-40.7525	-89.1999	132.495	-12.5451	-19.3252	141.471	-5.54309	9.98501	103.641	0.129415	-1.35399	
12	0.1	77.4923	-16.3514	20.3022	58.6596	-27.467	0.968634	37.0272	-35.3194	-15.7608	19.9011	-41.2288	-29.0933	69.302	-14.5441	-59.3076	58.1159	-20.0206	-80.0355	45.724	-22.2862	-96.8555	97.1552	-17.0923	-72.0365	94.2643	-23.8036	-98.7656	85.3476	-26.8539	-124.135	121.905	-25.0291	-65.2449	124.485	-28.0012	-89.641	118.593	-28.5858	-114.245	144.788	-36.6898	-49.8038	149.179	-39.3789	-68.9476	157.245	-40.424	-89.7989	131.521	-10.2465	-18.176	140.939	-6.72657	9.34641	105.433	2.55307	1.53637	
13	0.108333	80.9354	-17.9676	16.6208	57.2784	-28.1141	0.772363	37.8084	-35.1568	-17.9639	20.3027	-41.977	-27.6744	74.0922	-16.571	-58.1054	59.665	-20.3773	-80.3567	45.3369	-22.7696	-102.695	103.193	-18.64	-68.7525	95.1532	-23.1359	-94.941	85.8711	-27.539	-126.848	124.741	-26.4174	-66.4016	119.281	-27.1287	-86.7409	121.184	-29.9041	-110.909	145.936	-38.3196	-46.1125	151.539	-40.8895	-69.9379	156.054	-40.465	-87.0562	131.851	-11.4514	-14.9467	141.333	-6.89673	8.0942	105.135	2.36029	1.56416	
14	0.116667	78.8088	-18.2672	17.1711	54.4609	-27.4704	3.78479	36.3702	-35.4599	-17.2762	17.0152	-41.7603	-32.3937	70.4298	-15.925	-60.3894	58.5329	-21.7912	-82.2998	45.3787	-23.2749	-99.7961	98.1991	-18.9084	-69.3957	95.4084	-23.9514	-94.153	84.5853	-27.8174	-125.253	125.267	-27.4865	-64.6102	122.124	-27.8748	-90.2234	119.331	-30.0387	-115.516	144.24	-39.0399	-46.3167	153.856	-41.1113	-65.3637	159.548	-40.6912	-89.9159	134.584	-13.8303	-16.6578	139.987	-6.11513	10.3552	104.796	-1.22087	-1.69262	
15	0.125	76.7245	-17.2814	17.2881	55.8734	-28.0736	2.40903	34.7661	-35.1983	-16.1322	19.5128	-42.2381	-29.426	69.8479	-16.0946	-58.8507	55.2691	-21.51	-80.8163	43.7298	-22.9227	-99.4965	98.2991	-19.8895	-71.3922	89.5352	-23.6004	-96.8905	82.2878	-26.4828	-122.797	119.926	-26.3354	-64.8119	124.694	-28.9245	-85.6392	121.3	-30.8926	-113.764	144.568	-39.0392	-46.7234	152.33	-41.9725	-65.8795	158.791	-41.2214	-87.9989	135.751	-13.0938	-15.8283	143.015	-7.14405	7.80084	105.501	-1.18762	1.90327	
16	0.133333	79.6169	-18.6415	17.9711	53.5849	-27.0048	2.08706	35.4903	-35.2605	-20.3729	17.4747	-41.9775	-31.594	69.0376	-16.2767	-59.4942	54.2024	-20.5059	-78.7837	45.8519	-23.5581	-102.87	97.6896	-18.2329	-67.8986	89.958	-23.2071	-93.8866	86.503	-27.8352	-122.617	120.147	-26.8545	-60.3078	120.559	-28.8921	-88.3953	118.558	-30.2471	-114.663	144.017	-39.1033	-44.3136	149.993	-41.8877	-69.3107	157.678	-41.7961	-90.0457	133.143	-11.9157	-14.9847	142.752	-6.05957	11.3586	105.933	-1.44351	2.83793	
17	0.141667	75.7708	-18.613	17.4894	55.1605	-30.0392	-0.897169	32.803	-36.5345	-15.5035	17.934	-42.9538	-28.1401	70.613	-18.1489	-60.3371	56.7113	-22.2159	-80.2601	46.2236	-25.4396	-100.131	98.7511	-21.4849	-70.9232	90.9362	-25.6017	-97.1345	81.5407	-27.4864	-123.433	118.411	-27.4639	-63.365	121.967	-31.3926	-90.0731	117.166	-32.5885	-112.082	141.826	-39.1851	-48.5742	150.316	-43.4668	-69.2432	161.28	-43.7517	-86.3233	133.277	-13.1696	-15.4047	141.624	-6.60854	13.3708	101.954	-1.70715	3.28406	
18	0.15	74.3673	-18.7907	22.3596	53.7625	-30.1778	0.558566	31.7325	-37.6229	-13.6543	14.9714	-43.7286	-27.7775	68.2965	-18.7685	-56.0112	56.8822	-22.9852	-76.9606	46.7724	-26.1424	-102.625	95.327	-20.9633	-70.7677	92.2971	-26.6135	-92.6469	85.4742	-30.4629	-124.621	123.283	-29.9111	-60.1282	120.938	-30.9938	-84.5517	118.138	-34.3359	-112.788	141.537	-40.8298	-44.7122	149.135	-44.0546	-69.3321	158.811	-46.4511	-84.6666	128.306	-13.5099	-16.1881	137.036	-9.29563	12.2733	104.161	-2.59773	2.04972	
19	0.158333	74.1842	-19.4812	19.3747	55.6334	-30.5227	-0.483015	35.1137	-38.0235	-14.4099	15.7211	-44.2762	-27.9289	69.7084	-20.1201	-54.0799	55.1014	-23.2883	-76.9048	43.3034	-25.2156	-96.8369	99.7998	-23.1556	-71.0918	91.2387	-27.5028	-95.125	82.6733	-30.4523	-124.945	121.37	-29.8155	-64.4231	118.039	-30.705	-86.8003	117.408	-35.0267	-115.254	139.449	-41.9998	-44.4524	148.74	-44.9835	-66.0727	155.189	-44.2155	-89.625	127.654	-14.3359	-18.0344	138.828	-9.35363	8.90565	105.248	-3.07857	3.82317	
20	0.166667	76.4418	-21.8486	17.1868	55.5193	-30.9141	3.6138	29.7911	-38.158	-13.8681	18.3027	-45.6339	-30.202	72.0052	-21.4955	-57.8645	53.591	-23.7265	-76.4668	42.8511	-26.2585	-97.7137	96.4028	-22.4293	-66.613	91.0999	-27.2845	-92.3198	78.8285	-30.6841	-125.063	119.45	-30.2021	-63.7121	117.401	-32.2716	-88.1878	120.341	-36.7467	-111.43	143.9	-43.2917	-45.9973	150.06	-47.2057	-64.221	158.839	-47.845	-86.5888	133.619	-15.6976	-14.1056	141.27	-9.29294	11.3938	99.5196	-4.20446	-0.413446	
21	0.175	73.9731	-20.4324	17.6699	54.6593	-31.9409	-0.488014	29.0624	-37.622	-15.6505	16.0507	-45.0055	-26.6747	68.4421	-20.9531	-59.7205	54.5554	-22.741	-74.6932	41.8365	-25.4375	-101.093	96.598	-23.2304	-69.2315	86.0196	-27.1983	-95.0845	80.1612	-30.8568	-123.711	121.329	-31.0559	-64.587	119.058	-33.3436	-84.14	119.619	-35.9263	-111.005	142.774	-42.7171	-48.2477	147.112	-46.6553	-66.76	155.623	-47.3087	-87.2897	127.994	-14.2299	-12.7702	138.726	-10.5343	12.3368	104.354	-3.83516	2.46049	
22	0.183333	74.9402	-21.36	18.7558	55.6908	-32.2342	3.76812	30.6168	-37.7043	-17.6519	14.622	-44.9293	-28.9165	67.7269	-20.6591	-58.0916	54.1907	-25.3715	-77.8716	45.0048	-27.103	-99.1448	99.5267	-25.3475	-65.5182	90.6573	-29.6958	-93.0206	80.3596	-33.2611	-124.766	121.896	-32.7696	-59.4957	118.295	-33.2853	-84.1948	120.095	-36.9273	-111.075	138.999	-43.143	-47.999	148.927	-48.5065	-64.6106	153.184	-47.0737	-87.9108	127.59	-15.8143	-16.941	137.011	-11.4211	15.2766	102.49	-5.98947	0.459388	
23	0.191667	73.6595	-22.2161	23.2065	54.2015	-33.3705	4.68406	34.1173	-40.1079	-12.6605	12.7743	-45.7561	-24.3694	72.0048	-22.8246	-53.9307	52.9304	-25.3647	-75.6742	46.6579	-29.4633	-97.1866	95.8008	-25.7086	-63.258	89.8798	-31.36	-91.7593	81.14	-34.4495	-119.6	119.618	-34.9308	-59.9445	120.531	-36.0564	-86.5419	115.354	-38.399	-113.049	140.317	-45.4906	-46.1437	144.787	-48.5073	-61.6586	154.938	-52.3195	-85.8942	128.929	-20.3383	-15.9192	138.992	-11.8652	14.979	103.286	-6.15296	5.58412	
